<svg xmlns="http://www.w3.org/2000/svg" version="1.1" viewBox="0 0 200 200"><g fill="none" stroke-linecap="butt" stroke-width="2"><path stroke="#000" d="M 89.62 190.88 C 96.06 194.62 102.45 195.37 109.27 191.45 Q 142.63 172.27 175.13 153.64 C 180.46 150.58 184.29 145.10 184.28 139.04 Q 184.19 99.35 184.27 61.97 C 184.28 55.42 181.18 49.91 175.31 46.54 Q 143.31 28.19 109.45 8.69 C 103.51 5.27 96.99 4.95 90.96 8.44 Q 57.84 27.60 25.69 45.83 Q 19.15 49.54 16.98 54.97 Q 15.69 58.18 15.71 63.33 Q 15.80 97.99 15.70 136.77 Q 15.69 141.91 17.14 145.26 Q 19.43 150.57 24.06 153.22 Q 55.45 171.08 89.62 190.88" vector-effect="non-scaling-stroke"/><path stroke="#000" d="M 20.43 144.70 Q 23.43 150.30 28.18 151.56 A 1.19 1.17 79.6 0 1 28.85 152.03 Q 29.14 152.45 29.59 152.60 Q 30.02 152.74 30.40 152.96 Q 56.09 167.69 81.27 182.16 Q 87.50 185.75 89.50 186.79 Q 89.86 186.98 90.10 187.33 Q 90.44 187.83 91.02 187.72 Q 91.55 187.62 91.80 188.10 Q 92.19 188.85 93.05 188.95 A 1.52 1.42 64.7 0 1 93.80 189.25 Q 95.45 190.52 98.02 190.78 Q 100.98 191.08 103.02 190.58 Q 105.01 190.09 107.05 188.91 Q 141.76 168.80 174.57 150.25 Q 177.73 148.46 179.54 144.79 Q 180.52 142.78 180.66 141.96 Q 180.87 140.62 180.87 139.26 Q 180.83 100.26 180.86 59.94 A 8.07 8.05 35.1 0 0 180.36 57.09 C 179.32 54.24 177.57 51.89 174.82 50.32 Q 144.21 32.74 111.09 13.77 Q 109.23 12.71 107.66 11.66 Q 105.59 10.30 104.01 9.80 Q 98.46 8.05 93.31 11.02 Q 60.69 29.86 24.93 50.25 C 21.75 52.06 20.24 55.18 19.13 58.36 C 18.84 59.19 19.20 60.19 19.20 61.12 Q 19.33 100.73 19.26 140.41 Q 19.25 142.51 20.43 144.70" vector-effect="non-scaling-stroke"/><path stroke="#000" d="M 171.54 148.17 C 175.49 145.89 177.79 141.24 177.78 136.67 Q 177.70 100.53 177.79 63.24 C 177.80 58.30 175.40 53.99 171.03 51.49 Q 138.30 32.73 107.59 15.00 C 102.93 12.31 98.10 11.84 93.46 14.50 Q 61.43 32.82 28.63 51.72 C 24.77 53.94 22.23 58.38 22.24 62.83 Q 22.29 98.89 22.21 136.48 C 22.20 141.80 24.54 146.03 29.38 148.79 Q 60.15 166.32 92.28 184.91 C 96.91 187.60 101.77 188.22 106.67 185.42 Q 138.77 167.10 171.54 148.17" vector-effect="non-scaling-stroke"/><path stroke="#000" d="M 59.22 138.48 Q 58.58 138.11 58.05 137.61 Q 51.92 131.89 46.21 126.55 A 2.01 2.00 -23.2 0 0 44.83 126.00 L 27.05 126.00 Q 26.56 126.00 26.54 126.48 Q 26.30 131.78 26.65 135.50 Q 27.04 139.66 30.51 143.57 Q 32.43 145.74 35.13 147.29 Q 64.38 164.04 91.97 179.89 C 97.82 183.25 103.57 182.42 109.45 179.05 Q 138.05 162.66 165.18 147.03 C 170.66 143.87 173.60 138.74 173.56 132.49 Q 173.43 113.56 173.52 94.57 Q 173.53 94.00 172.96 94.00 L 156.73 94.00 Q 156.20 94.00 155.80 94.36 Q 149.98 99.63 144.03 105.34 C 142.36 106.94 140.73 107.28 138.48 107.27 Q 107.48 107.22 77.55 107.26 Q 77.02 107.26 76.78 107.74 Q 73.77 113.92 67.12 114.17 C 53.25 114.70 50.19 95.41 63.52 92.02 Q 72.27 89.80 76.99 98.32 A 0.84 0.83 75.3 0 0 77.72 98.75 L 138.02 98.75 Q 138.56 98.75 138.96 98.38 Q 144.80 92.95 151.08 87.07 Q 152.74 85.52 155.07 85.51 Q 164.00 85.48 172.92 85.51 Q 173.53 85.51 173.52 84.91 Q 173.44 75.78 173.55 66.51 C 173.61 60.95 170.03 55.64 165.31 52.94 Q 138.02 37.31 108.02 20.09 Q 103.53 17.51 98.21 18.08 Q 94.45 18.48 89.20 21.56 Q 62.24 37.35 35.80 52.21 C 31.00 54.91 27.07 59.48 26.63 64.72 Q 26.31 68.56 26.55 73.52 Q 26.57 74.00 27.05 74.00 L 45.02 74.00 Q 45.64 74.00 46.09 73.58 L 58.14 62.33 A 4.99 4.96 23.4 0 1 61.53 61.00 L 123.99 61.00 A 1.03 1.01 -77.0 0 0 124.91 60.41 C 128.11 53.69 135.77 51.93 141.88 55.85 C 148.45 60.05 148.29 70.42 141.71 74.52 C 135.65 78.29 128.06 76.52 124.95 69.96 A 0.81 0.81 0.0 0 0 124.22 69.50 L 63.48 69.50 Q 62.93 69.50 62.52 69.87 Q 56.10 75.83 50.53 81.01 Q 48.90 82.52 46.64 82.52 Q 36.71 82.49 27.04 82.50 Q 26.50 82.50 26.50 83.04 L 26.50 117.00 Q 26.50 117.50 27.00 117.50 L 47.02 117.50 A 5.05 5.03 66.3 0 1 50.44 118.84 L 62.56 130.14 Q 62.94 130.50 63.47 130.50 L 124.19 130.50 Q 124.63 130.50 124.83 130.10 Q 127.56 124.41 133.49 123.60 C 138.57 122.90 144.04 125.62 145.91 130.64 C 148.64 137.97 143.95 145.49 136.11 146.10 Q 128.50 146.69 124.66 139.42 Q 124.43 139.00 123.96 139.00 L 61.16 139.00 Q 60.12 139.00 59.22 138.48" vector-effect="non-scaling-stroke"/><path stroke="#000" d="M 141.58 65.18 A 6.32 6.32 0.0 0 0 135.26 58.86 A 6.32 6.32 0.0 0 0 128.94 65.18 A 6.32 6.32 0.0 0 0 135.26 71.50 A 6.32 6.32 0.0 0 0 141.58 65.18" vector-effect="non-scaling-stroke"/><path stroke="#000" d="M 72.78 102.96 A 6.32 6.32 0.0 0 0 66.46 96.64 A 6.32 6.32 0.0 0 0 60.14 102.96 A 6.32 6.32 0.0 0 0 66.46 109.28 A 6.32 6.32 0.0 0 0 72.78 102.96" vector-effect="non-scaling-stroke"/><path stroke="#000" d="M 141.57 134.83 A 6.32 6.32 0.0 0 0 135.25 128.51 A 6.32 6.32 0.0 0 0 128.93 134.83 A 6.32 6.32 0.0 0 0 135.25 141.15 A 6.32 6.32 0.0 0 0 141.57 134.83" vector-effect="non-scaling-stroke"/><path stroke="#000" d="M 84.57 72.61 Q 75.83 72.95 65.94 72.67 C 64.43 72.63 63.44 73.44 62.46 74.45 Q 56.71 80.32 50.51 85.19 Q 49.68 85.85 50.64 86.30 Q 53.96 87.87 57.24 90.13 Q 58.18 90.78 59.16 90.18 C 64.43 86.97 71.19 87.79 75.82 91.45 C 77.09 92.44 77.95 93.81 79.04 94.96 A 1.05 1.04 68.2 0 0 79.80 95.29 L 136.86 95.27 Q 137.42 95.27 137.83 94.88 Q 143.85 89.22 149.32 84.18 Q 151.41 82.26 154.14 82.25 Q 162.05 82.23 169.71 82.25 A 0.57 0.56 -1.0 0 0 170.28 81.67 Q 170.19 75.98 170.33 69.05 C 170.44 63.58 168.54 58.80 163.86 56.11 Q 134.85 39.42 106.28 23.06 C 102.32 20.79 97.44 20.93 93.63 23.12 Q 64.81 39.67 35.32 56.62 C 30.09 59.63 30.27 64.66 29.65 69.86 A 0.77 0.77 0.0 0 0 30.41 70.72 L 43.21 70.75 A 2.69 2.68 -66.9 0 0 45.07 70.00 Q 50.49 64.81 56.08 59.69 Q 58.56 57.42 62.50 57.46 Q 89.40 57.73 121.74 57.47 Q 122.26 57.47 122.65 57.12 C 123.31 56.51 123.82 55.71 124.47 55.02 C 130.88 48.20 142.11 49.16 147.51 56.75 C 153.38 64.99 148.92 77.13 138.88 79.33 Q 128.82 81.53 122.83 73.25 Q 122.51 72.80 121.95 72.80 Q 112.82 72.72 103.24 72.49 Q 93.55 72.26 84.57 72.61" vector-effect="non-scaling-stroke"/><path stroke="#000" d="M 139.07 120.66 C 149.01 123.11 153.32 134.80 147.61 143.10 C 141.86 151.45 129.33 151.83 123.24 143.37 Q 122.63 142.51 121.57 142.51 L 114.41 142.50 Q 113.26 142.50 113.93 143.43 Q 121.01 153.30 126.86 164.09 A 0.88 0.88 0.0 0 0 128.08 164.44 Q 145.84 154.22 163.16 144.33 Q 170.25 140.27 170.26 132.33 Q 170.27 114.92 170.27 97.81 Q 170.27 97.50 169.96 97.50 L 158.00 97.52 A 1.64 1.62 -65.9 0 0 156.90 97.95 Q 151.60 102.89 145.80 108.27 Q 143.39 110.50 140.30 110.50 Q 111.91 110.51 85.26 110.48 Q 84.66 110.48 85.08 110.91 L 100.90 126.87 A 1.30 1.25 66.6 0 0 101.80 127.25 L 121.77 127.25 A 1.30 1.28 -71.2 0 0 122.80 126.73 Q 129.11 118.21 139.07 120.66" vector-effect="non-scaling-stroke"/></g><path fill="transparent" d="M 0.00 0.00 L 200.00 0.00 L 200.00 200.00 L 0.00 200.00 L 0.00 0.00 Z M 89.62 190.88 C 96.06 194.62 102.45 195.37 109.27 191.45 Q 142.63 172.27 175.13 153.64 C 180.46 150.58 184.29 145.10 184.28 139.04 Q 184.19 99.35 184.27 61.97 C 184.28 55.42 181.18 49.91 175.31 46.54 Q 143.31 28.19 109.45 8.69 C 103.51 5.27 96.99 4.95 90.96 8.44 Q 57.84 27.60 25.69 45.83 Q 19.15 49.54 16.98 54.97 Q 15.69 58.18 15.71 63.33 Q 15.80 97.99 15.70 136.77 Q 15.69 141.91 17.14 145.26 Q 19.43 150.57 24.06 153.22 Q 55.45 171.08 89.62 190.88 Z"/><path fill="#000" d="M 89.62 190.88 Q 55.45 171.08 24.06 153.22 Q 19.43 150.57 17.14 145.26 Q 15.69 141.91 15.70 136.77 Q 15.80 97.99 15.71 63.33 Q 15.69 58.18 16.98 54.97 Q 19.15 49.54 25.69 45.83 Q 57.84 27.60 90.96 8.44 C 96.99 4.95 103.51 5.27 109.45 8.69 Q 143.31 28.19 175.31 46.54 C 181.18 49.91 184.28 55.42 184.27 61.97 Q 184.19 99.35 184.28 139.04 C 184.29 145.10 180.46 150.58 175.13 153.64 Q 142.63 172.27 109.27 191.45 C 102.45 195.37 96.06 194.62 89.62 190.88 Z M 20.43 144.70 Q 23.43 150.30 28.18 151.56 A 1.19 1.17 79.6 0 1 28.85 152.03 Q 29.14 152.45 29.59 152.60 Q 30.02 152.74 30.40 152.96 Q 56.09 167.69 81.27 182.16 Q 87.50 185.75 89.50 186.79 Q 89.86 186.98 90.10 187.33 Q 90.44 187.83 91.02 187.72 Q 91.55 187.62 91.80 188.10 Q 92.19 188.85 93.05 188.95 A 1.52 1.42 64.7 0 1 93.80 189.25 Q 95.45 190.52 98.02 190.78 Q 100.98 191.08 103.02 190.58 Q 105.01 190.09 107.05 188.91 Q 141.76 168.80 174.57 150.25 Q 177.73 148.46 179.54 144.79 Q 180.52 142.78 180.66 141.96 Q 180.87 140.62 180.87 139.26 Q 180.83 100.26 180.86 59.94 A 8.07 8.05 35.1 0 0 180.36 57.09 C 179.32 54.24 177.57 51.89 174.82 50.32 Q 144.21 32.74 111.09 13.77 Q 109.23 12.71 107.66 11.66 Q 105.59 10.30 104.01 9.80 Q 98.46 8.05 93.31 11.02 Q 60.69 29.86 24.93 50.25 C 21.75 52.06 20.24 55.18 19.13 58.36 C 18.84 59.19 19.20 60.19 19.20 61.12 Q 19.33 100.73 19.26 140.41 Q 19.25 142.51 20.43 144.70 Z"/><path fill="#000" d="M 20.43 144.70 Q 19.25 142.51 19.26 140.41 Q 19.33 100.73 19.20 61.12 C 19.20 60.19 18.84 59.19 19.13 58.36 C 20.24 55.18 21.75 52.06 24.93 50.25 Q 60.69 29.86 93.31 11.02 Q 98.46 8.05 104.01 9.80 Q 105.59 10.30 107.66 11.66 Q 109.23 12.71 111.09 13.77 Q 144.21 32.74 174.82 50.32 C 177.57 51.89 179.32 54.24 180.36 57.09 A 8.07 8.05 35.1 0 1 180.86 59.94 Q 180.83 100.26 180.87 139.26 Q 180.87 140.62 180.66 141.96 Q 180.52 142.78 179.54 144.79 Q 177.73 148.46 174.57 150.25 Q 141.76 168.80 107.05 188.91 Q 105.01 190.09 103.02 190.58 Q 100.98 191.08 98.02 190.78 Q 95.45 190.52 93.80 189.25 A 1.52 1.42 64.7 0 0 93.05 188.95 Q 92.19 188.85 91.80 188.10 Q 91.55 187.62 91.02 187.72 Q 90.44 187.83 90.10 187.33 Q 89.86 186.98 89.50 186.79 Q 87.50 185.75 81.27 182.16 Q 56.09 167.69 30.40 152.96 Q 30.02 152.74 29.59 152.60 Q 29.14 152.45 28.85 152.03 A 1.19 1.17 79.6 0 0 28.18 151.56 Q 23.43 150.30 20.43 144.70 Z M 171.54 148.17 C 175.49 145.89 177.79 141.24 177.78 136.67 Q 177.70 100.53 177.79 63.24 C 177.80 58.30 175.40 53.99 171.03 51.49 Q 138.30 32.73 107.59 15.00 C 102.93 12.31 98.10 11.84 93.46 14.50 Q 61.43 32.82 28.63 51.72 C 24.77 53.94 22.23 58.38 22.24 62.83 Q 22.29 98.89 22.21 136.48 C 22.20 141.80 24.54 146.03 29.38 148.79 Q 60.15 166.32 92.28 184.91 C 96.91 187.60 101.77 188.22 106.67 185.42 Q 138.77 167.10 171.54 148.17 Z"/><path fill="transparent" d="M 177.78 136.67 C 177.79 141.24 175.49 145.89 171.54 148.17 Q 138.77 167.10 106.67 185.42 C 101.77 188.22 96.91 187.60 92.28 184.91 Q 60.15 166.32 29.38 148.79 C 24.54 146.03 22.20 141.80 22.21 136.48 Q 22.29 98.89 22.24 62.83 C 22.23 58.38 24.77 53.94 28.63 51.72 Q 61.43 32.82 93.46 14.50 C 98.10 11.84 102.93 12.31 107.59 15.00 Q 138.30 32.73 171.03 51.49 C 175.40 53.99 177.80 58.30 177.79 63.24 Q 177.70 100.53 177.78 136.67 Z M 59.22 138.48 Q 58.58 138.11 58.05 137.61 Q 51.92 131.89 46.21 126.55 A 2.01 2.00 -23.2 0 0 44.83 126.00 L 27.05 126.00 Q 26.56 126.00 26.54 126.48 Q 26.30 131.78 26.65 135.50 Q 27.04 139.66 30.51 143.57 Q 32.43 145.74 35.13 147.29 Q 64.38 164.04 91.97 179.89 C 97.82 183.25 103.57 182.42 109.45 179.05 Q 138.05 162.66 165.18 147.03 C 170.66 143.87 173.60 138.74 173.56 132.49 Q 173.43 113.56 173.52 94.57 Q 173.53 94.00 172.96 94.00 L 156.73 94.00 Q 156.20 94.00 155.80 94.36 Q 149.98 99.63 144.03 105.34 C 142.36 106.94 140.73 107.28 138.48 107.27 Q 107.48 107.22 77.55 107.26 Q 77.02 107.26 76.78 107.74 Q 73.77 113.92 67.12 114.17 C 53.25 114.70 50.19 95.41 63.52 92.02 Q 72.27 89.80 76.99 98.32 A 0.84 0.83 75.3 0 0 77.72 98.75 L 138.02 98.75 Q 138.56 98.75 138.96 98.38 Q 144.80 92.95 151.08 87.07 Q 152.74 85.52 155.07 85.51 Q 164.00 85.48 172.92 85.51 Q 173.53 85.51 173.52 84.91 Q 173.44 75.78 173.55 66.51 C 173.61 60.95 170.03 55.64 165.31 52.94 Q 138.02 37.31 108.02 20.09 Q 103.53 17.51 98.21 18.08 Q 94.45 18.48 89.20 21.56 Q 62.24 37.35 35.80 52.21 C 31.00 54.91 27.07 59.48 26.63 64.72 Q 26.31 68.56 26.55 73.52 Q 26.57 74.00 27.05 74.00 L 45.02 74.00 Q 45.64 74.00 46.09 73.58 L 58.14 62.33 A 4.99 4.96 23.4 0 1 61.53 61.00 L 123.99 61.00 A 1.03 1.01 -77.0 0 0 124.91 60.41 C 128.11 53.69 135.77 51.93 141.88 55.85 C 148.45 60.05 148.29 70.42 141.71 74.52 C 135.65 78.29 128.06 76.52 124.95 69.96 A 0.81 0.81 0.0 0 0 124.22 69.50 L 63.48 69.50 Q 62.93 69.50 62.52 69.87 Q 56.10 75.83 50.53 81.01 Q 48.90 82.52 46.64 82.52 Q 36.71 82.49 27.04 82.50 Q 26.50 82.50 26.50 83.04 L 26.50 117.00 Q 26.50 117.50 27.00 117.50 L 47.02 117.50 A 5.05 5.03 66.3 0 1 50.44 118.84 L 62.56 130.14 Q 62.94 130.50 63.47 130.50 L 124.19 130.50 Q 124.63 130.50 124.83 130.10 Q 127.56 124.41 133.49 123.60 C 138.57 122.90 144.04 125.62 145.91 130.64 C 148.64 137.97 143.95 145.49 136.11 146.10 Q 128.50 146.69 124.66 139.42 Q 124.43 139.00 123.96 139.00 L 61.16 139.00 Q 60.12 139.00 59.22 138.48 Z M 141.58 65.18 A 6.32 6.32 0.0 0 0 135.26 58.86 A 6.32 6.32 0.0 0 0 128.94 65.18 A 6.32 6.32 0.0 0 0 135.26 71.50 A 6.32 6.32 0.0 0 0 141.58 65.18 Z M 72.78 102.96 A 6.32 6.32 0.0 0 0 66.46 96.64 A 6.32 6.32 0.0 0 0 60.14 102.96 A 6.32 6.32 0.0 0 0 66.46 109.28 A 6.32 6.32 0.0 0 0 72.78 102.96 Z M 141.57 134.83 A 6.32 6.32 0.0 0 0 135.25 128.51 A 6.32 6.32 0.0 0 0 128.93 134.83 A 6.32 6.32 0.0 0 0 135.25 141.15 A 6.32 6.32 0.0 0 0 141.57 134.83 Z"/><path fill="#222" d="M 59.22 138.48 Q 60.12 139.00 61.16 139.00 L 123.96 139.00 Q 124.43 139.00 124.66 139.42 Q 128.50 146.69 136.11 146.10 C 143.95 145.49 148.64 137.97 145.91 130.64 C 144.04 125.62 138.57 122.90 133.49 123.60 Q 127.56 124.41 124.83 130.10 Q 124.63 130.50 124.19 130.50 L 63.47 130.50 Q 62.94 130.50 62.56 130.14 L 50.44 118.84 A 5.05 5.03 66.3 0 0 47.02 117.50 L 27.00 117.50 Q 26.50 117.50 26.50 117.00 L 26.50 83.04 Q 26.50 82.50 27.04 82.50 Q 36.71 82.49 46.64 82.52 Q 48.90 82.52 50.53 81.01 Q 56.10 75.83 62.52 69.87 Q 62.93 69.50 63.48 69.50 L 124.22 69.50 A 0.81 0.81 0.0 0 1 124.95 69.96 C 128.06 76.52 135.65 78.29 141.71 74.52 C 148.29 70.42 148.45 60.05 141.88 55.85 C 135.77 51.93 128.11 53.69 124.91 60.41 A 1.03 1.01 -77.0 0 1 123.99 61.00 L 61.53 61.00 A 4.99 4.96 23.4 0 0 58.14 62.33 L 46.09 73.58 Q 45.64 74.00 45.02 74.00 L 27.05 74.00 Q 26.57 74.00 26.55 73.52 Q 26.31 68.56 26.63 64.72 C 27.07 59.48 31.00 54.91 35.80 52.21 Q 62.24 37.35 89.20 21.56 Q 94.45 18.48 98.21 18.08 Q 103.53 17.51 108.02 20.09 Q 138.02 37.31 165.31 52.94 C 170.03 55.64 173.61 60.95 173.55 66.51 Q 173.44 75.78 173.52 84.91 Q 173.53 85.51 172.92 85.51 Q 164.00 85.48 155.07 85.51 Q 152.74 85.52 151.08 87.07 Q 144.80 92.95 138.96 98.38 Q 138.56 98.75 138.02 98.75 L 77.72 98.75 A 0.84 0.83 75.3 0 1 76.99 98.32 Q 72.27 89.80 63.52 92.02 C 50.19 95.41 53.25 114.70 67.12 114.17 Q 73.77 113.92 76.78 107.74 Q 77.02 107.26 77.55 107.26 Q 107.48 107.22 138.48 107.27 C 140.73 107.28 142.36 106.94 144.03 105.34 Q 149.98 99.63 155.80 94.36 Q 156.20 94.00 156.73 94.00 L 172.96 94.00 Q 173.53 94.00 173.52 94.57 Q 173.43 113.56 173.56 132.49 C 173.60 138.74 170.66 143.87 165.18 147.03 Q 138.05 162.66 109.45 179.05 C 103.57 182.42 97.82 183.25 91.97 179.89 Q 64.38 164.04 35.13 147.29 Q 32.43 145.74 30.51 143.57 Q 27.04 139.66 26.65 135.50 Q 26.30 131.78 26.54 126.48 Q 26.56 126.00 27.05 126.00 L 44.83 126.00 A 2.01 2.00 -23.2 0 1 46.21 126.55 Q 51.92 131.89 58.05 137.61 Q 58.58 138.11 59.22 138.48 Z M 84.57 72.61 Q 75.83 72.95 65.94 72.67 C 64.43 72.63 63.44 73.44 62.46 74.45 Q 56.71 80.32 50.51 85.19 Q 49.68 85.85 50.64 86.30 Q 53.96 87.87 57.24 90.13 Q 58.18 90.78 59.16 90.18 C 64.43 86.97 71.19 87.79 75.82 91.45 C 77.09 92.44 77.95 93.81 79.04 94.96 A 1.05 1.04 68.2 0 0 79.80 95.29 L 136.86 95.27 Q 137.42 95.27 137.83 94.88 Q 143.85 89.22 149.32 84.18 Q 151.41 82.26 154.14 82.25 Q 162.05 82.23 169.71 82.25 A 0.57 0.56 -1.0 0 0 170.28 81.67 Q 170.19 75.98 170.33 69.05 C 170.44 63.58 168.54 58.80 163.86 56.11 Q 134.85 39.42 106.28 23.06 C 102.32 20.79 97.44 20.93 93.63 23.12 Q 64.81 39.67 35.32 56.62 C 30.09 59.63 30.27 64.66 29.65 69.86 A 0.77 0.77 0.0 0 0 30.41 70.72 L 43.21 70.75 A 2.69 2.68 -66.9 0 0 45.07 70.00 Q 50.49 64.81 56.08 59.69 Q 58.56 57.42 62.50 57.46 Q 89.40 57.73 121.74 57.47 Q 122.26 57.47 122.65 57.12 C 123.31 56.51 123.82 55.71 124.47 55.02 C 130.88 48.20 142.11 49.16 147.51 56.75 C 153.38 64.99 148.92 77.13 138.88 79.33 Q 128.82 81.53 122.83 73.25 Q 122.51 72.80 121.95 72.80 Q 112.82 72.72 103.24 72.49 Q 93.55 72.26 84.57 72.61 Z M 139.07 120.66 C 149.01 123.11 153.32 134.80 147.61 143.10 C 141.86 151.45 129.33 151.83 123.24 143.37 Q 122.63 142.51 121.57 142.51 L 114.41 142.50 Q 113.26 142.50 113.93 143.43 Q 121.01 153.30 126.86 164.09 A 0.88 0.88 0.0 0 0 128.08 164.44 Q 145.84 154.22 163.16 144.33 Q 170.25 140.27 170.26 132.33 Q 170.27 114.92 170.27 97.81 Q 170.27 97.50 169.96 97.50 L 158.00 97.52 A 1.64 1.62 -65.9 0 0 156.90 97.95 Q 151.60 102.89 145.80 108.27 Q 143.39 110.50 140.30 110.50 Q 111.91 110.51 85.26 110.48 Q 84.66 110.48 85.08 110.91 L 100.90 126.87 A 1.30 1.25 66.6 0 0 101.80 127.25 L 121.77 127.25 A 1.30 1.28 -71.2 0 0 122.80 126.73 Q 129.11 118.21 139.07 120.66 Z"/><path fill="#000" d="M 103.24 72.49 Q 112.82 72.72 121.95 72.80 Q 122.51 72.80 122.83 73.25 Q 128.82 81.53 138.88 79.33 C 148.92 77.13 153.38 64.99 147.51 56.75 C 142.11 49.16 130.88 48.20 124.47 55.02 C 123.82 55.71 123.31 56.51 122.65 57.12 Q 122.26 57.47 121.74 57.47 Q 89.40 57.73 62.50 57.46 Q 58.56 57.42 56.08 59.69 Q 50.49 64.81 45.07 70.00 A 2.69 2.68 -66.9 0 1 43.21 70.75 L 30.41 70.72 A 0.77 0.77 0.0 0 1 29.65 69.86 C 30.27 64.66 30.09 59.63 35.32 56.62 Q 64.81 39.67 93.63 23.12 C 97.44 20.93 102.32 20.79 106.28 23.06 Q 134.85 39.42 163.86 56.11 C 168.54 58.80 170.44 63.58 170.33 69.05 Q 170.19 75.98 170.28 81.67 A 0.57 0.56 -1.0 0 1 169.71 82.25 Q 162.05 82.23 154.14 82.25 Q 151.41 82.26 149.32 84.18 Q 143.85 89.22 137.83 94.88 Q 137.42 95.27 136.86 95.27 L 79.80 95.29 A 1.05 1.04 68.2 0 1 79.04 94.96 C 77.95 93.81 77.09 92.44 75.82 91.45 C 71.19 87.79 64.43 86.97 59.16 90.18 Q 58.18 90.78 57.24 90.13 Q 53.96 87.87 50.64 86.30 Q 49.68 85.85 50.51 85.19 Q 56.71 80.32 62.46 74.45 C 63.44 73.44 64.43 72.63 65.94 72.67 Q 75.83 72.95 84.57 72.61 Q 93.55 72.26 103.24 72.49 Z"/><circle cx="135.26" cy="65.18" r="6.32" fill="#000"/><circle cx="66.46" cy="102.96" r="6.32" fill="#000"/><path fill="#000" d="M 139.07 120.66 Q 129.11 118.21 122.80 126.73 A 1.30 1.28 -71.2 0 1 121.77 127.25 L 101.80 127.25 A 1.30 1.25 66.6 0 1 100.90 126.87 L 85.08 110.91 Q 84.66 110.48 85.26 110.48 Q 111.91 110.51 140.30 110.50 Q 143.39 110.50 145.80 108.27 Q 151.60 102.89 156.90 97.95 A 1.64 1.62 -65.9 0 1 158.00 97.52 L 169.96 97.50 Q 170.27 97.50 170.27 97.81 Q 170.27 114.92 170.26 132.33 Q 170.25 140.27 163.16 144.33 Q 145.84 154.22 128.08 164.44 A 0.88 0.88 0.0 0 1 126.86 164.09 Q 121.01 153.30 113.93 143.43 Q 113.26 142.50 114.41 142.50 L 121.57 142.51 Q 122.63 142.51 123.24 143.37 C 129.33 151.83 141.86 151.45 147.61 143.10 C 153.32 134.80 149.01 123.11 139.07 120.66 Z"/><circle cx="135.25" cy="134.83" r="6.32" fill="#000"/></svg>